<mxfile host="app.diagrams.net" modified="2024-03-19T14:41:37.481Z" agent="Mozilla/5.0 (Windows NT 10.0; Win64; x64; rv:123.0) Gecko/20100101 Firefox/123.0" etag="ZyzYSDO7qoumS25sNLoh" version="24.0.7" type="github">
  <diagram name="Page-1" id="Uey1eP7v3raOa8SfktkP">
    <mxGraphModel dx="988" dy="527" grid="1" gridSize="10" guides="1" tooltips="1" connect="1" arrows="1" fold="1" page="1" pageScale="1" pageWidth="850" pageHeight="1100" math="1" shadow="0">
      <root>
        <mxCell id="0" />
        <mxCell id="1" parent="0" />
        <mxCell id="7KTQNLXFav_vAfD9PksO-1" value="" style="endArrow=classic;html=1;rounded=0;" parent="1" edge="1">
          <mxGeometry width="50" height="50" relative="1" as="geometry">
            <mxPoint x="370" y="510" as="sourcePoint" />
            <mxPoint x="180" y="690" as="targetPoint" />
          </mxGeometry>
        </mxCell>
        <mxCell id="7KTQNLXFav_vAfD9PksO-2" value="" style="endArrow=classic;html=1;rounded=0;" parent="1" edge="1">
          <mxGeometry width="50" height="50" relative="1" as="geometry">
            <mxPoint x="560" y="510" as="sourcePoint" />
            <mxPoint x="370" y="690" as="targetPoint" />
          </mxGeometry>
        </mxCell>
        <mxCell id="7KTQNLXFav_vAfD9PksO-4" value="" style="verticalLabelPosition=bottom;verticalAlign=top;html=1;shape=mxgraph.basic.4_point_star_2;dx=0.8;" parent="1" vertex="1">
          <mxGeometry x="440" y="490" width="20" height="20" as="geometry" />
        </mxCell>
        <mxCell id="7KTQNLXFav_vAfD9PksO-5" value="" style="endArrow=none;dashed=1;html=1;dashPattern=1 3;strokeWidth=2;rounded=0;" parent="1" edge="1">
          <mxGeometry width="50" height="50" relative="1" as="geometry">
            <mxPoint x="370" y="690" as="sourcePoint" />
            <mxPoint x="260" y="580" as="targetPoint" />
          </mxGeometry>
        </mxCell>
        <mxCell id="7KTQNLXFav_vAfD9PksO-6" value="" style="shape=curlyBracket;whiteSpace=wrap;html=1;rounded=1;labelPosition=left;verticalLabelPosition=middle;align=right;verticalAlign=middle;rotation=46;" parent="1" vertex="1">
          <mxGeometry x="220" y="579" width="10" height="110" as="geometry" />
        </mxCell>
        <mxCell id="7KTQNLXFav_vAfD9PksO-8" value="" style="endArrow=none;html=1;rounded=0;" parent="1" edge="1">
          <mxGeometry width="50" height="50" relative="1" as="geometry">
            <mxPoint x="120" y="709" as="sourcePoint" />
            <mxPoint x="440" y="709" as="targetPoint" />
          </mxGeometry>
        </mxCell>
        <mxCell id="7KTQNLXFav_vAfD9PksO-10" value="" style="shape=image;html=1;verticalAlign=top;verticalLabelPosition=bottom;labelBackgroundColor=#ffffff;imageAspect=0;aspect=fixed;image=https://cdn3.iconfinder.com/data/icons/school-172/512/astronomy_science_telescope_observation-128.png" parent="1" vertex="1">
          <mxGeometry x="170" y="689" width="18" height="18" as="geometry" />
        </mxCell>
        <mxCell id="7KTQNLXFav_vAfD9PksO-11" value="" style="shape=image;html=1;verticalAlign=top;verticalLabelPosition=bottom;labelBackgroundColor=#ffffff;imageAspect=0;aspect=fixed;image=https://cdn3.iconfinder.com/data/icons/school-172/512/astronomy_science_telescope_observation-128.png" parent="1" vertex="1">
          <mxGeometry x="360" y="689" width="18" height="18" as="geometry" />
        </mxCell>
        <mxCell id="7KTQNLXFav_vAfD9PksO-12" value="" style="endArrow=classic;startArrow=classic;html=1;rounded=0;" parent="1" edge="1">
          <mxGeometry width="50" height="50" relative="1" as="geometry">
            <mxPoint x="180" y="720" as="sourcePoint" />
            <mxPoint x="370" y="720" as="targetPoint" />
          </mxGeometry>
        </mxCell>
        <mxCell id="7KTQNLXFav_vAfD9PksO-14" value="&lt;div&gt;$$ \tau = B\cos(\theta) $$&lt;/div&gt;" style="text;html=1;align=center;verticalAlign=middle;whiteSpace=wrap;rounded=0;rotation=-45;" parent="1" vertex="1">
          <mxGeometry x="180" y="610" width="60" height="30" as="geometry" />
        </mxCell>
        <mxCell id="7KTQNLXFav_vAfD9PksO-16" value="&lt;div&gt;$$B$$&lt;/div&gt;" style="text;html=1;align=center;verticalAlign=middle;whiteSpace=wrap;rounded=0;" parent="1" vertex="1">
          <mxGeometry x="250" y="720" width="60" height="30" as="geometry" />
        </mxCell>
        <mxCell id="7KTQNLXFav_vAfD9PksO-19" value="" style="curved=1;endArrow=classic;html=1;rounded=0;" parent="1" edge="1">
          <mxGeometry width="50" height="50" relative="1" as="geometry">
            <mxPoint x="399" y="668" as="sourcePoint" />
            <mxPoint x="419" y="705" as="targetPoint" />
            <Array as="points">
              <mxPoint x="419" y="668" />
            </Array>
          </mxGeometry>
        </mxCell>
        <mxCell id="7KTQNLXFav_vAfD9PksO-20" value="&lt;div&gt;$$ \theta $$&lt;/div&gt;" style="text;html=1;align=center;verticalAlign=middle;whiteSpace=wrap;rounded=0;" parent="1" vertex="1">
          <mxGeometry x="400" y="659" width="60" height="30" as="geometry" />
        </mxCell>
        <mxCell id="7KTQNLXFav_vAfD9PksO-21" value="" style="shape=partialRectangle;whiteSpace=wrap;html=1;bottom=1;right=1;left=1;top=0;fillColor=none;routingCenterX=-0.5;" parent="1" vertex="1">
          <mxGeometry x="176" y="720" width="200" height="80" as="geometry" />
        </mxCell>
        <mxCell id="7KTQNLXFav_vAfD9PksO-22" value="" style="ellipse;shape=doubleEllipse;whiteSpace=wrap;html=1;aspect=fixed;" parent="1" vertex="1">
          <mxGeometry x="262" y="785" width="30" height="30" as="geometry" />
        </mxCell>
        <mxCell id="NkJb3o608pkPtY_OuwA3-1" value="" style="endArrow=classic;html=1;rounded=0;" edge="1" parent="1">
          <mxGeometry width="50" height="50" relative="1" as="geometry">
            <mxPoint x="229" y="707" as="sourcePoint" />
            <mxPoint x="440" y="507" as="targetPoint" />
          </mxGeometry>
        </mxCell>
        <mxCell id="NkJb3o608pkPtY_OuwA3-2" value="&lt;div&gt;$$ \vec{s} $$&lt;/div&gt;" style="text;html=1;align=center;verticalAlign=middle;whiteSpace=wrap;rounded=0;rotation=0;" vertex="1" parent="1">
          <mxGeometry x="356" y="567" width="10" as="geometry" />
        </mxCell>
        <mxCell id="NkJb3o608pkPtY_OuwA3-13" value="" style="endArrow=none;dashed=1;html=1;dashPattern=1 3;strokeWidth=2;rounded=0;" edge="1" parent="1">
          <mxGeometry width="50" height="50" relative="1" as="geometry">
            <mxPoint x="360" y="650" as="sourcePoint" />
            <mxPoint x="410" y="600" as="targetPoint" />
          </mxGeometry>
        </mxCell>
      </root>
    </mxGraphModel>
  </diagram>
</mxfile>
